:version 1.10
:name ASF
:units
  mass 1
  length 1
  angle deg
:documentation
  ASF file generated by Kaydara
:root
  axis xyz
  order  tx ty tz rx ry rz
  position 0 0 0
  orientation 0 0 0
:bonedata
  begin
    id 1
    name lfemurDummy
    direction 0.61522 -0.761478 0.204097
    length 5.68318
    axis 0 -0 0 xyz
  end
  begin
    id 2
    name lfemur
    direction 0.34202 -0.939693 -5.84747e-008
    length 16.9147
    axis 0 -0 20 xyz
    dof rx ry rz
    limits( -inf , inf )
( -inf , inf )
( -inf , inf )

  end
  begin
    id 3
    name ltibia
    direction 0.34202 -0.939693 1.20839e-009
    length 18.0532
    axis 0 -0 20 xyz
    dof rz ry rx
    limits( -inf , inf )
( -inf , inf )
( -inf , inf )

  end
  begin
    id 4
    name lfoot
    direction 0.0841971 -0.23133 0.969225
    length 5.23822
    axis -90 7.62852e-016 20 xyz
    dof ry rx rz
    limits( -inf , inf )
( -inf , inf )
( -inf , inf )

  end
  begin
    id 5
    name ltoes
    direction 0 0 0
    length 0
    axis 0 0 0 xyz
    dof rz ry rx
    limits( -inf , inf )
( -inf , inf )
( -inf , inf )

  end
  begin
    id 6
    name rfemurDummy
    direction -0.625247 -0.75382 0.202044
    length 5.74091
    axis 0 -0 0 xyz
  end
  begin
    id 7
    name rfemur
    direction -0.34202 -0.939693 -1.47013e-008
    length 16.4922
    axis 0 -0 -20 xyz
    dof rx ry rz
    limits( -inf , inf )
( -inf , inf )
( -inf , inf )

  end
  begin
    id 8
    name rtibia
    direction -0.34202 -0.939693 -7.74345e-010
    length 18.2421
    axis 0 -0 -20 xyz
    dof rz ry rx
    limits( -inf , inf )
( -inf , inf )
( -inf , inf )

  end
  begin
    id 9
    name rfoot
    direction -0.124331 -0.341598 0.931586
    length 5.45787
    axis -90 -7.62852e-016 -20 xyz
    dof ry rx rz
    limits( -inf , inf )
( -inf , inf )
( -inf , inf )

  end
  begin
    id 10
    name rtoes
    direction 0 0 0
    length 0
    axis 0 0 0 xyz
    dof rz ry rx
    limits( -inf , inf )
( -inf , inf )
( -inf , inf )

  end
  begin
    id 11
    name lowerbackDummy
    direction 0 0 0
    length 0
    axis 0 -0 0 xyz
  end
  begin
    id 12
    name lowerback
    direction -0.0218484 0.994884 -0.0986304
    length 4.45607
    axis 0 -0 0 xyz
    dof rx ry rz
    limits( -inf , inf )
( -inf , inf )
( -inf , inf )

  end
  begin
    id 13
    name upperback
    direction -0.00973057 0.999717 -0.0217111
    length 4.47449
    axis 0 -0 0 xyz
    dof rx ry rz
    limits( -inf , inf )
( -inf , inf )
( -inf , inf )

  end
  begin
    id 14
    name thorax
    direction -0.000928171 0.999699 0.0245198
    length 4.50973
    axis 0 -0 0 xyz
    dof rx ry rz
    limits( -inf , inf )
( -inf , inf )
( -inf , inf )

  end
  begin
    id 15
    name rclavicle
    direction -0.9009 0.425937 -0.0834055
    length 7.28587
    axis 0 -0 0 xyz
    dof rx ry rz
    limits( -inf , inf )
( -inf , inf )
( -inf , inf )

  end
  begin
    id 16
    name rhumerus
    direction -1 -2.23604e-007 -1.42637e-007
    length 13.5704
    axis 180 30 90 xyz
    dof rx ry rz
    limits( -inf , inf )
( -inf , inf )
( -inf , inf )

  end
  begin
    id 17
    name rradius
    direction -1 5.68281e-008 -4.4952e-007
    length 8.06782
    axis 180 30 90 xyz
    dof rz ry rx
    limits( -inf , inf )
( -inf , inf )
( -inf , inf )

  end
  begin
    id 18
    name rwrist
    direction -1 1.51393e-007 1.38143e-007
    length 4.03391
    axis -90 -90 0 xyz
    dof rz rx ry
    limits( -inf , inf )
( -inf , inf )
( -inf , inf )

  end
  begin
    id 19
    name rthumb
    direction 0 0 0
    length 0
    axis 0 0 0 xyz
    dof ry rx rz
    limits( -inf , inf )
( -inf , inf )
( -inf , inf )

  end
  begin
    id 20
    name rhand
    direction -1 -3.34077e-007 -5.59631e-007
    length 1.29744
    axis -90 -90 0 xyz
    dof ry rx rz
    limits( -inf , inf )
( -inf , inf )
( -inf , inf )

  end
  begin
    id 21
    name rfingers
    direction 0 0 0
    length 0
    axis 0 0 0 xyz
    dof rz ry rx
    limits( -inf , inf )
( -inf , inf )
( -inf , inf )

  end
  begin
    id 22
    name lclavicle
    direction 0.940017 0.332249 -0.0773232
    length 8.29589
    axis 0 -0 0 xyz
    dof rx ry rz
    limits( -inf , inf )
( -inf , inf )
( -inf , inf )

  end
  begin
    id 23
    name lhumerus
    direction 1 7.41158e-008 -1.44768e-008
    length 12.0042
    axis 180 -30 -90 xyz
    dof rx ry rz
    limits( -inf , inf )
( -inf , inf )
( -inf , inf )

  end
  begin
    id 24
    name lradius
    direction 1 -1.32972e-007 3.10821e-007
    length 8.1902
    axis 180 -30 -90 xyz
    dof rz ry rx
    limits( -inf , inf )
( -inf , inf )
( -inf , inf )

  end
  begin
    id 25
    name lwrist
    direction 1 3.08957e-007 4.01394e-007
    length 4.09509
    axis -90 90 0 xyz
    dof rz rx ry
    limits( -inf , inf )
( -inf , inf )
( -inf , inf )

  end
  begin
    id 26
    name lthumb
    direction 0 0 0
    length 0
    axis 0 0 0 xyz
    dof ry rx rz
    limits( -inf , inf )
( -inf , inf )
( -inf , inf )

  end
  begin
    id 27
    name lhand
    direction 1 -1.64125e-007 -6.99514e-007
    length 1.37229
    axis -90 90 0 xyz
    dof ry rx rz
    limits( -inf , inf )
( -inf , inf )
( -inf , inf )

  end
  begin
    id 28
    name lfingers
    direction 0 0 0
    length 0
    axis 0 0 0 xyz
    dof rz ry rx
    limits( -inf , inf )
( -inf , inf )
( -inf , inf )

  end
  begin
    id 29
    name lowerneck
    direction -0.030798 0.998024 0.0547665
    length 3.93918
    axis 0 -0 0 xyz
    dof rx ry rz
    limits( -inf , inf )
( -inf , inf )
( -inf , inf )

  end
  begin
    id 30
    name upperneck
    direction 0.0531588 0.996611 -0.0627736
    length 3.95491
    axis 0 -0 0 xyz
    dof rx ry rz
    limits( -inf , inf )
( -inf , inf )
( -inf , inf )

  end
  begin
    id 31
    name head
    direction 0 0 0
    length 0
    axis 0 0 0 xyz
    dof rx ry rz
    limits( -inf , inf )
( -inf , inf )
( -inf , inf )

  end
:hierarchy
  begin
    root lfemurDummy rfemurDummy lowerbackDummy
    lfemurDummy lfemur
    lfemur ltibia
    ltibia lfoot
    lfoot ltoes
    rfemurDummy rfemur
    rfemur rtibia
    rtibia rfoot
    rfoot rtoes
    lowerbackDummy lowerback
    lowerback upperback
    upperback thorax
    thorax rclavicle lclavicle lowerneck
    rclavicle rhumerus
    rhumerus rradius
    rradius rwrist
    rwrist rthumb rhand
    rhand rfingers
    lclavicle lhumerus
    lhumerus lradius
    lradius lwrist
    lwrist lthumb lhand
    lhand lfingers
    lowerneck upperneck
    upperneck head
  end

:SAMPLES-PER-SECOND 30
:FULLY-SPECIFIED
:DEGREES
59
root  11.81220032 40.04511195 -4.260977798 -160.3790283 -79.13790131 162.2819824
lowerback  10.8217001 1.262199998 -0.1700640023
upperback  4.267739773 1.507979989 1.354760051
thorax  -1.662410021 0.6642199755 1.318830013
lowerneck  -4.667819977 7.479529858 2.507230043
upperneck  13.75839996 9.645409584 0.3815180063
head  5.007289886 4.808670044 0.2622190118
lclavicle  0 -9.442270133e-015 7.951389973e-016
lhumerus  -51.3905983 -3.05163002 88.60610199
lradius  1.965271161e-031 -2.933692775e-031 123.8180008
lwrist  -1.412450015e-030 8.827812596e-032 16.95240021
lhand  -1.496451383e-031 -27.76390076 20.11240005
lfingers  90 7.125020027 -90
lthumb  89.89689403 5.08795885 91.16245106
rclavicle  0 -9.442270133e-015 7.951389973e-016
rhumerus  -25.88150024 35.26129913 -89.75479889
rradius  -9.687472258e-032 3.395640271e-031 105.9229965
rwrist  1.412450015e-030 -0 -5.716450214
rhand  -7.920061211e-032 -33.2840004 9.303460121
rfingers  -90 -7.125020027 -90
rthumb  -92.93752616 -24.25625642 -97.11982154
rfemur  -9.574910164 16.09469986 2.267479897
rtibia  -0 0 44.78179932
rfoot  -0 -17.09560013 -11.85229969
rtoes  5.373923086 19.29304026 -105.8922705
lfemur  -27.34449959 2.518320084 -5.362919807
ltibia  -0 0 62.05089951
lfoot  5.527225638e-032 -3.419850111 -1.555379987
ltoes  -4.250644065 -19.5611806 -102.515957
60
root  11.76791078 39.84955615 -4.298511265 -162.5419922 -79.38430023 164.492981
lowerback  11.11369991 1.328590035 0.002220009919
upperback  4.011449814 1.63380003 1.664680004
thorax  -2.095050097 0.7306889892 1.519510031
lowerneck  -4.567399979 7.299429893 2.38854003
upperneck  13.61069965 9.368849754 0.7375730276
head  4.918300152 4.690269947 0.3634029925
lclavicle  0 -9.442270133e-015 7.951389973e-016
lhumerus  -50.97299957 -2.883379936 88.00730133
lradius  1.937534837e-031 -2.952084483e-031 123.2779999
lwrist  -7.062250077e-031 8.827812596e-032 17.76160049
lhand  -1.496451383e-031 -27.76390076 20.11240005
lfingers  90 7.125020027 -90
lthumb  89.89689403 5.08795885 91.16245106
rclavicle  0 -9.442270133e-015 7.951389973e-016
rhumerus  -24.64109993 35.1026001 -89.07180023
rradius  -1.015060179e-031 3.382084693e-031 106.7060013
rwrist  1.412450015e-030 1.765562519e-031 -6.000870228
rhand  -7.920061211e-032 -33.2840004 9.303460121
rfingers  -90 -7.125020027 -90
rthumb  -92.93752616 -24.25625642 -97.11982154
rfemur  -8.33024025 16.5590992 3.208029985
rtibia  -0 0 43.47999954
rfoot  -0 -19.6807003 -11.98340034
rtoes  5.373923086 19.29304026 -105.8922705
lfemur  -28.61899948 1.82348001 -4.219470024
ltibia  -0 0 61.73929977
lfoot  5.529825116e-032 -3.844259977 -1.434999943
ltoes  -4.250644065 -19.5611806 -102.515957
61
root  11.70226645 39.64555695 -4.306110998 -167.6699829 -79.90299988 169.757019
lowerback  11.0177002 1.305510044 1.023689985
upperback  3.929009914 1.719110012 2.081969976
thorax  -2.112169981 0.7740340233 1.367820024
lowerneck  -4.476429939 7.112349987 2.319390059
upperneck  13.27120018 9.1040802 0.947191
head  4.782569885 4.572850227 0.4100910127
lclavicle  0 -9.442270133e-015 7.951389973e-016
lhumerus  -50.08639908 -2.789459944 87.40499878
lradius  1.916464413e-031 -2.965806499e-031 122.8700027
lwrist  -7.062250077e-031 -0 18.40640068
lhand  -1.496451383e-031 -27.76390076 20.11240005
lfingers  90 7.125020027 -90
lthumb  89.89689403 5.08795885 91.16245106
rclavicle  0 -9.442270133e-015 7.951389973e-016
rhumerus  -22.90589905 34.77009964 -88.08229828
rradius  -1.052009476e-031 3.370774407e-031 107.3330002
rwrist  0 -1.765562519e-031 -6.370110035
rhand  -7.920061211e-032 -33.2840004 9.303460121
rfingers  -90 -7.125020027 -90
rthumb  -92.93752616 -24.25625642 -97.11982154
rfemur  -7.280960083 16.55809975 4.628210068
rtibia  -0 0 42.32369995
rfoot  -0 -21.20689964 -12.94139957
rtoes  5.373923086 19.29304026 -105.8922705
lfemur  -30.01989937 0.8418210149 -2.489769936
ltibia  -0 0 61.33420181
lfoot  5.532122714e-032 -4.183450222 -1.44343996
ltoes  -4.250644065 -19.5611806 -102.515957
62
root  11.63071084 39.44888978 -4.270000157 -167.0139771 -79.69049835 168.4819946
lowerback  11.28660011 1.478960037 0.8292080164
upperback  4.245090008 1.908450007 2.117719889
thorax  -1.941220045 0.8588680029 1.488880038
lowerneck  -4.516499996 6.960559845 2.394269943
upperneck  12.83710003 8.902560234 0.9531300068
head  4.657360077 4.482230186 0.3805989921
lclavicle  0 -9.442270133e-015 7.951389973e-016
lhumerus  -48.7317009 -2.585050106 86.74669647
lradius  1.896908043e-031 -2.97835255e-031 122.4929962
lwrist  -7.062250077e-031 1.765562519e-031 18.67440033
lhand  -1.496451383e-031 -27.76390076 20.11240005
lfingers  90 7.125020027 -90
lthumb  89.89689403 5.08795885 91.16245106
rclavicle  0 -9.442270133e-015 7.951389973e-016
rhumerus  -20.68250084 34.5033989 -86.92269897
rradius  -1.079859047e-031 3.361956049e-031 107.8069992
rwrist  7.062250077e-031 -1.765562519e-031 -6.734469891
rhand  -7.920061211e-032 -33.2840004 9.303460121
rfingers  -90 -7.125020027 -90
rthumb  -92.93752616 -24.25625642 -97.11982154
rfemur  -5.953139782 16.49679947 4.420229912
rtibia  -0 0 41.49430084
rfoot  -0 -22.32780075 -13.56449986
rtoes  5.373923086 19.29304026 -105.8922705
lfemur  -30.42309952 -0.2894229889 -2.392819881
ltibia  -0 0 60.71640015
lfoot  5.537521187e-032 -4.887909889 -1.250910044
ltoes  -4.250644065 -19.5611806 -102.515957
